<svg data-name="Layer 1" height="32" width="32" xmlns="http://www.w3.org/2000/svg"><path d="m25.396 8.835-.004.003c.084.232.162.467.229.707-.068-.24-.141-.478-.225-.71zM16 2.23 8.929 5.16l4.063 4.062a4.249 4.249 0 0 1 6.029 5.988L25 9.23l.392-.392A9.987 9.987 0 0 0 16 2.23z" fill="#4285f4"/><path d="M16 16.473a4.25 4.25 0 0 1-3.008-7.251L8.929 5.159A9.968 9.968 0 0 0 6 12.23c0 4.406 2.265 7.167 4.93 10 .179.183.327.385.496.575l7.56-7.561A4.234 4.234 0 0 1 16 16.474z" fill="#ffba00"/><path d="M16 2.23a10 10 0 0 0-10 10 11.092 11.092 0 0 0 .545 3.455l12.85-12.85A9.956 9.956 0 0 0 16 2.23z" fill="#0066da"/><path d="M16.901 29.12a21.83 21.83 0 0 1 4.032-6.897C23.798 19.313 26 16.636 26 12.23a9.959 9.959 0 0 0-.604-3.396l-13.97 13.97a18.044 18.044 0 0 1 3.591 6.276.998.998 0 0 0 1.884.04z" fill="#00ac47"/><path d="M10.93 22.23c.179.183.327.385.496.575-.169-.19-.318-.392-.496-.575zM7.207 7.464a9.936 9.936 0 0 0-.757 1.793 9.943 9.943 0 0 1 .757-1.793zM6.45 9.257a9.952 9.952 0 0 0-.398 1.95 9.954 9.954 0 0 1 .398-1.95z" fill="#0066da" opacity=".5"/><path d="M15.196 29.399c.02.025.044.042.066.064-.022-.022-.046-.04-.066-.064zM15.787 29.743l.04.007zM13.622 25.927c-.037-.067-.068-.138-.106-.205.037.067.069.138.106.205zM15.017 29.08q-.307-.904-.69-1.757c.252.57.486 1.154.69 1.757zM15.527 29.656c-.023-.01-.046-.02-.068-.033.022.013.045.022.068.033zM19.712 23.753c-.25.347-.468.712-.693 1.074.224-.362.444-.726.693-1.074zM23.322 19.553zM17.047 28.774q.351-.887.756-1.743c-.271.57-.522 1.152-.756 1.743zM18.68 25.358z" fill="#fff"/><path d="M8.929 5.16A9.968 9.968 0 0 0 6 12.23a11.092 11.092 0 0 0 .545 3.455L13 9.23z" fill="#ea4435"/></svg>